# Max2Obj Version 4.0 Mar 10th, 2001
#
mtllib ./tree2.mtl
g
# object Material__27 to come ...
#
v  -28.692905 8.635281 0.116353
v  28.953926 8.635281 0.116353
v  -28.692905 103.449203 0.116357
v  28.953926 103.449203 0.116357
v  -28.692905 103.449203 -0.129623
v  -28.692905 8.635281 -0.129627
v  28.953926 8.635281 -0.129627
v  28.953926 103.449203 -0.129623
v  0.130507 8.635281 28.939770
v  0.130505 8.635281 -28.707058
v  0.130511 103.449203 28.939770
v  0.130508 103.449203 -28.707058
v  -0.115469 103.449203 28.939770
v  -0.115473 8.635281 28.939770
v  -0.115476 8.635281 -28.707058
v  -0.115472 103.449203 -28.707058
# 16 vertices

vt  0.000000 0.000000 0.000000
vt  1.000000 0.000000 0.000000
vt  0.000000 1.000000 0.000000
vt  1.000000 1.000000 0.000000
vt  0.000000 1.000000 0.000000
vt  0.000000 0.000000 0.000000
vt  1.000000 0.000000 0.000000
vt  1.000000 1.000000 0.000000
vt  0.000000 0.000000 0.000000
vt  1.000000 0.000000 0.000000
vt  0.000000 1.000000 0.000000
vt  1.000000 1.000000 0.000000
vt  0.000000 1.000000 0.000000
vt  0.000000 0.000000 0.000000
vt  1.000000 0.000000 0.000000
vt  1.000000 1.000000 0.000000
# 16 texture vertices

vn  0.000000 -0.000000 1.000000
vn  0.000000 -0.000000 1.000000
vn  0.000000 -0.000000 1.000000
vn  0.000000 -0.000000 1.000000
vn  0.000000 -0.000000 1.000000
vn  0.000000 -0.000000 1.000000
vn  0.000000 -0.000000 1.000000
vn  0.000000 -0.000000 1.000000
vn  1.000000 -0.000000 -0.000000
vn  1.000000 -0.000000 -0.000000
vn  1.000000 -0.000000 -0.000000
vn  1.000000 -0.000000 -0.000000
vn  1.000000 -0.000000 -0.000000
vn  1.000000 -0.000000 -0.000000
vn  1.000000 -0.000000 -0.000000
vn  1.000000 -0.000000 -0.000000
# 16 vertex normals

g Material__27
usemtl Material__27
s 1
f 1/1/1 2/2/2 4/4/4
f 4/4/4 3/3/3 1/1/1
f 6/6/6 7/7/7 8/8/8
f 8/8/8 5/5/5 6/6/6
f 9/9/9 10/10/10 12/12/12
f 12/12/12 11/11/11 9/9/9
f 14/14/14 15/15/15 16/16/16
f 16/16/16 13/13/13 14/14/14
# 8 faces

g
